<svg xmlns="http://www.w3.org/2000/svg" viewBox="0 0 800 188"><title>Artboard 1warawdawd</title><g id="objects"><path d="M777.93,154.76,777.21,121l-1.33-1.44-1.6-58.46L769,54.78l-8.46.33-3.93-3.54V36.73l-11.28,1.33-.19-14.28,1-.11.29-4.6L733.09,3.74,686.51,15l-.1,4.81,1.51,1.28.39,23.8S677.54,46,677.4,46.06s-11.57,7.61-11.57,7.61l1.55,64.88-.52,0-.19-11.9-8.83-1.11-.14-5.34-2.88-.28-2.49,0-6,.84-1-32.42.14-.18V66.79l-11.46-2.71-.14-3-6.95-1.86-6.2,1.44.06,4.65-19.77,2.55-.66-23a34.22,34.22,0,0,0-3.77-.72c-2.82-.44-7.07-.57-7.07-.57v-.29L590,43l.16-2.44s-7.28-1.58-10.38-1.41-12.61,2.71-12.61,2.71v3.2l.48.14,0,.44-10.95,2.73.39,16-11.68-2-21.64,4.81.05,29.59-8.41-1.74-17.08,2.55,0-1.33-9.69-1.47L488.41,88l-.41-.2s-.17-3.93-.17-4.06-.57-.43-.57-.43l-.15-3-.36-.57,0-.7s-.12-.13-.19-.1-.09.28-.09.28l-.13.08-.06.49-3.72-8.85s0-2.41-.11-2.54a1.82,1.82,0,0,0-.27-.34l.05-.22s-.07-3.53-.08-3.58-.28-.13-.28-.13l0-.48-.19-.19s-.18-2.41-.18-2.46a1,1,0,0,0-.09-.22l-.15-4.31s0,4.22-.11,4.33a.54.54,0,0,0-.08.3c0,.08-.11,2.44-.11,2.44l-.18,0s0,.79-.05.84-.15-.08-.17-.13-.15,0-.23.06,0,3.39,0,3.52.26.19.26.19l-.37.24,0,.54-.14.08s0,2,0,2.16-2.09,6-2.09,6l-28.73.16-1.56,2.49V98.77l-10.21.33.06,4.57-3.36-.08a1.56,1.56,0,0,0-1,.33c-.33.33,0,1.08,0,1.08l-.23.12s0,.19,0,.22.23.08.23.08l.08,3.47L432,109l-1.62,1.85,0,1.35h.25l.1,1-.7-.5,0-17.86-8.6-.15-.33-.24L421,91.88l-.19-.17,0-2.51-.57-.09-.08-4.41-.47-.08c-.06,0-.67.12-.67.12l-.5,0-.14-.23-3.08,0-.5,0-.88.29h-.53l-1,.24,0,.41-.22.11,0,3.09-.2.06,0,.8-.14.06,0,.23-.1.07,0,2.5-.21.08-.05,2-3.12,0-.05-1.27-2,0-.27.24v1l-1.15,0-1.16,1.55,0,6.51-1.3-.11-.11-1.66-2.82-.22-1.11.27,0,1.71-2.95-.07-.68.26-.15,2.81-.61,1.25-.21.51h-.48l-.07-.7-.79-.41-.07-.87-.43,0,0,.58-.21.06,0-.67-.33.26v1.26l-4.08-.19-.83,1,.08,2.14h-.79l0-3.29-3-.54-.54.18,0,2.15L379,108l0-18.51L371.72,89V87.83l-6.77-.46-1,.3v.92l-14.32-.89-2.14,2.93-.1,23.27-.48-.06.12-12.52.16-.42a6,6,0,0,0,0-1s0-1,0-1.09.18-.52.2-.67-.25-2.29-.25-2.29l-3.33-.39-.09-3a16.72,16.72,0,0,1-1.71-.32c-.1-.08-.08-.76-.08-.84a1.37,1.37,0,0,1,.09-.4.86.86,0,0,0-.15-.64l-.06-.35-1.66-.22-.05-.26s-4.17-1.06-4.24-1-4.12,1-4.12,1h-.61l0-3.81a2.29,2.29,0,0,0,.15-.39c0-.07-1.95-1.36-1.95-1.36s-2,.85-2.06.94,0,.1.06.17,0,3.18,0,3.18l-1.41.55.08,2-.36.22-.85,0,.08-9.19-3-.43,0-.29-1.59-.23-.09-6.31-5.69-.88-1.73.82,0,5.41-.8-.11-1,.4-.05.91-.09,0s0,.68,0,.71-.14.07-.14.07l-.17,17-.43.15v.57l-.21.19,0,.78a.44.44,0,0,0-.14.11c-.07.08,0,.46,0,.46l-.22.14.12.44,0,1.3-.8.3-.09,3.1-4-.3-1.22.25,0-13.16-.63,0,.6-.79.07-.88-.83-.05,0-.51-15.46-1.18-2.54,1.29v1h-1.76v.45l.71.22.23,29.27-.46.53.06,4.52s-.46,0-.56,0-.07-1.18-.07-1.18l-.38-.08-.09-1.26-1-.69-1.6,0-1.5.66-.06,1-.63.16-.11,1.72-.83.69-.06.89-2.46,0L272.45,130l0,12-.37.09v.52l-1.17-.07-.08,2.07-2.34,0-.11,1-3,0-.88.22.78-63.13,0-.79-.71-.16,0-2.71-9.41-1.44.17-5.59L237,63l-2.22-.17-1.3.31L233,90.94l-2.43.89-1.83,1.49-.11-23.25-19.38-4-9.32.58v33.52l-.37-.28-8-.51-.06,2.74-1.83-.14,0-.87-2-.32-.05-2.88-4.85-4.51L170.07,92.2l-4,3.63L163.82,98v1l-2.16,2.13.08.9-1.69,1.73v4.76l-.27.22-.37,21.6-3.18,2v5.39l-2.14-.12.16-26.17-.35-.28-.1-5.81-.93-.66.09-1.94L150.79,101l.09-1-1.64-1.25-.16-1.16L137.3,88.42a.63.63,0,0,0-.3,0c-.13,0-12.85,5-12.85,5l-.05,1.48a6.43,6.43,0,0,0-.9.16,8.22,8.22,0,0,0-1.91.84l-.17,2.44-.91.85-.17,5.42h-.63l-.17,29.26-3.74-.51-.16,1.86-.72-.12-.18-3.7-4.38-.42,0-.75-5.12-.42v-2.34l-6.38-.33-.14,2.39-3.76-.25,0-2.66-2-.84-.1-1.87-2.09-.83v-1.71l-1.8-.7,0-1.51-1.74-.72-.07-1.25-1.84-.75-.18-4.31.89-1.4,0-.58-1-1.56-.86-8.77L82.44,91.6l1.75-.54,4-4.2L90,86.54s3.74-4,3.79-4.74-1.34-1.56-1.34-1.56l.46-1.84V76.24L85.65,72,80.88,77.6a9.48,9.48,0,0,0-.56-3.55,14.31,14.31,0,0,1-1.22-4.6,8.56,8.56,0,0,0-1.58-4.13c-.61-.68-2.64-1.83-2.71-2.54A7.83,7.83,0,0,0,73.74,60a1.53,1.53,0,0,1-.25-1.54,12,12,0,0,0,.31-2.3.86.86,0,0,0-.21-.73,5,5,0,0,1-.27-1.46c0-.41.48-.8.59-1.26a1.36,1.36,0,0,0-.35-1.07,1.21,1.21,0,0,1-.07-.51,5,5,0,0,0,.82-1.57l6.74-.05,0-.23-6.68-.66a2.66,2.66,0,0,0-.11-1.33l7-2.67,0-.27L73.61,46.1a3.72,3.72,0,0,0-1.12-1.17l5.19-5.49-.2-.29-6,5.21a4.62,4.62,0,0,0-2.42-.6l-.43-7.65-.33,0-.55,7.57a8,8,0,0,0-2.29.24l-5.85-4.57-.15.16,4.94,5.13a6.33,6.33,0,0,0-1.53,1.52L57.47,44.8c-.09-1.07-.18-2.33-.16-3,0-1.4-1.51-8-1.76-8.94s-.43-1.55,0-1.91a2,2,0,0,0,.76-1.29,2.28,2.28,0,0,0-.57-1.07c-.22-.22,0-.61.07-.72a6.57,6.57,0,0,0,.32-2.77c0-1.68-1.9-4.5-2.12-4.66a.48.48,0,0,1,0-.67,1.32,1.32,0,0,1,.45-.36l.18-1.48c.62-.24,2.05-1.23,2.13-2.07s-1-1.56-1-1.56l.05-1.43-.89,0L55,12c.64-.54.4-2.53.37-3.44S53.87,5.23,54,6.07a2.81,2.81,0,0,1-.92,1.85,5.51,5.51,0,0,0,0-2c-.13-1-1.13-2.56-1.48-2.08s-2.34,3.47-3,4.44a5.56,5.56,0,0,0-.94,3,.69.69,0,0,1-.34.7v.83l0,.22s.53,1.24.26,1.4a1.8,1.8,0,0,0-.79,1.86c.16,1.1,2.44,1.71,2.44,1.71s-.06,1.47.19,1.62.31.28.06.53-.24,1.51-.31,1.8a18.39,18.39,0,0,0,.4,2.8,10,10,0,0,0,1.29,2.66c.24.27.41.67.08.94A1.6,1.6,0,0,0,50.51,30a2.45,2.45,0,0,0,.91,1.16s.36,11.49.43,13.14a17,17,0,0,0,1.29,4.45,8.06,8.06,0,0,1-1.5,2.66,12.31,12.31,0,0,0-1.87,7.25c.07,2.51,1.58,3,2.08,3s.79-.58.29,1.07,1.29,2.88,1.79,3.38-.21,2.72-.79,4.09,1.94,4.24,2.59,6.75-1.87,7-2.59,8.69a2.44,2.44,0,0,0,1.66,3.3c1.07.21,1,1.72,1.15,2.73s-.58,2.44-1.44,3.94a6.16,6.16,0,0,0-.43,3.67s1.15,8.33,1.29,10.19-.07,4.09-.43,4.6a2.32,2.32,0,0,0-.14,2.08,12.42,12.42,0,0,1-.22,4.52,18.73,18.73,0,0,0-.07,5,3.15,3.15,0,0,1-.6,1.91l-3.57,0-.1,2.44-6.06-.21-.1.33L42.22,130v0H39.69v-5.07H34.62v-6.33h0V116h0v3.8H32.09v-11.4h0v-3.8H29.56v3.8h0v6.34H27v2.53H24.49v2.53H22v5.07H19.42v5.07H16.89v2.53H14.36v1.27h0v13.71l-9.15-.07L3,148.09l-.54.88-.8.12v2l-1.46.68.28,29.45-.84,6.63,800-2.52V156.5ZM62.54,52.64a2.67,2.67,0,0,1-1.32,2.13c-.44.13-1.18-.54-1-2.21a7.52,7.52,0,0,0-.43-3.12l2.45.08.43.4Zm-.08-5.54c-.08.24-.2,1.55-.2,1.55l-2.6.39a2.76,2.76,0,0,1-.08-.27c-.24-1-1.91-2-1.91-2s-.09-.76-.17-1.73C58.71,45.51,62.53,46.89,62.46,47.1Z"/></g></svg>